<?xml version="1.0" encoding="UTF-8"?>
<svg width="24" height="24" viewBox="0 0 24 24" fill="none" xmlns="http://www.w3.org/2000/svg">
    <!-- Wide Brim -->
    <path d="M2 18C2 18 7 16 12 16C17 16 22 18 22 18C22 18 19 14 12 14C5 14 2 18 2 18Z" fill="currentColor"/>
    
    <!-- Main Hat Body -->
    <path d="M12 2L6 14C6 14 9 13 12 13C15 13 18 14 18 14L12 2Z" stroke="currentColor" stroke-width="1.5" stroke-linecap="round" stroke-linejoin="round"/>
    
    <!-- Decorative Band -->
    <path d="M6 14C6 14 9 13 12 13C15 13 18 14 18 14" stroke="currentColor" stroke-width="1.5" stroke-linecap="round"/>
    
    <!-- Stars -->
    <path d="M9 8L9.7 6.5L10.4 8L9.7 9.5L9 8Z" fill="currentColor"/>
    <path d="M15 10L15.7 8.5L16.4 10L15.7 11.5L15 10Z" fill="currentColor"/>
    <path d="M13 5L13.5 4L14 5L13.5 6L13 5Z" fill="currentColor"/>
    
    <!-- Curved Top -->
    <path d="M12 2C12 2 14 4 14.5 7C15 10 14 13 12 13C10 13 9 10 9.5 7C10 4 12 2 12 2Z" stroke="currentColor" stroke-width="1.5" stroke-linecap="round" stroke-linejoin="round"/>
</svg> 